<?xml version="1.0" encoding="UTF-8" standalone="no"?>
<!-- Created with Inkscape (http://www.inkscape.org/) -->

<svg
   width="5000"
   height="5000"
   viewBox="0 0 1322.9166 1322.9167"
   version="1.1"
   id="svg5"
   xmlns="http://www.w3.org/2000/svg"
   xmlns:svg="http://www.w3.org/2000/svg">
  <defs
     id="defs2" />
  <g
     id="layer1"
     style="display:inline">
    <g
       id="g363"
       style="display:inline">
      <rect
         style="fill:#d5e5ff;fill-opacity:1;stroke:none;stroke-width:1"
         id="rect1037"
         width="1322.9166"
         height="1322.9166"
         x="7.4023439e-05"
         y="-2.5976562e-05" />
      <circle
         style="fill:#aaccff;fill-opacity:1;stroke:none;stroke-width:1.56219"
         id="path1601"
         cx="661.45831"
         cy="661.45831"
         r="454.18176" />
      <rect
         style="fill:#5599ff;fill-opacity:1;stroke:none;stroke-width:0.677335"
         id="rect1757"
         width="1322.9166"
         height="606.93073"
         x="7.4023439e-05"
         y="715.98584" />
      <path
         id="path1334"
         style="fill:#003380;fill-opacity:1;stroke:none;stroke-width:0.301333px;stroke-linecap:butt;stroke-linejoin:miter;stroke-opacity:1"
         d="m 1278.1318,858.75122 c 14.9746,-0.37709 29.9212,0.3577 44.7849,2.01087 V 1322.9167 H 0 V 873.77569 c 34.4268,-9.15059 69.5161,-13.55271 104.8407,-11.93781 114.1163,5.21695 220.86614,69.58598 325.95218,127.53005 105.08604,57.94417 217.36283,111.50777 330.70591,93.53187 65.4077,-10.3737 127.18409,-44.1699 186.4129,-81.6302 59.22881,-37.46038 117.20601,-79.09876 179.51151,-106.92281 48.3243,-21.58041 99.6088,-34.30879 150.7086,-35.59557 z" />
      <path
         id="path1314"
         style="fill:#0044aa;fill-opacity:1;stroke:none;stroke-width:0.260623px;stroke-linecap:butt;stroke-linejoin:miter;stroke-opacity:1"
         d="m 1278.1318,975.6948 c 14.9746,-0.28208 29.9212,0.26759 44.7849,1.50425 V 1322.9167 H 0 V 986.93395 c 34.4268,-6.84515 69.5161,-10.13819 104.8407,-8.93015 114.1163,3.90257 220.86614,52.0542 325.95218,95.3996 105.08604,43.3455 217.36283,83.4142 330.70591,69.9671 65.4077,-7.76 127.18409,-33.0415 186.4129,-61.0639 59.22881,-28.0225 117.20601,-59.1704 179.51151,-79.9843 48.3243,-16.14336 99.6088,-25.66491 150.7086,-26.6275 z" />
      <path
         id="path50"
         style="fill:#0055d4;fill-opacity:1;stroke:none;stroke-width:0.200487px;stroke-linecap:butt;stroke-linejoin:miter;stroke-opacity:1"
         d="M 44.784861,1117.4446 C 29.810289,1117.2777 14.863708,1117.6029 0,1118.3347 v 204.5819 h 1322.9167 v -198.8211 c -34.4268,-4.0507 -69.5161,-5.9994 -104.8407,-5.2846 -114.1163,2.3095 -220.86614,30.8037 -325.95218,56.4538 -105.08604,25.6501 -217.36283,49.3611 -330.70591,41.4037 -65.4077,-4.5921 -127.18409,-19.5527 -186.4129,-36.1352 -59.2288,-16.5826 -117.20602,-35.0147 -179.51152,-47.3315 -48.32428,-9.553 -99.608822,-15.1875 -150.708629,-15.7571 z" />
      <path
         id="path4510"
         style="opacity:0.182;fill:#0066ff;fill-opacity:1;stroke:none;stroke-width:0.860413"
         d="M 826.47704,-2.5976562e-5 A 680.66112,919.42705 0 0 0 691.22394,549.01038 680.66112,919.42705 0 0 0 1005.2325,1322.9166 h 317.6842 V -2.5976562e-5 Z" />
      <path
         id="path5857"
         style="opacity:0.102;fill:#0066ff;fill-opacity:1;stroke:none;stroke-width:0.860413"
         d="M 1322.9167,496.43963 A 919.42705,680.66112 0 0 1 773.9063,631.69273 919.42705,680.66112 0 0 1 1.1e-4,317.68417 V -2.5976562e-5 H 1322.9167 Z" />
      <g
         id="g285"
         transform="matrix(1.0594666,0,0,1.0594666,-1424.8207,-39.971002)">
        <g
           id="g4272"
           transform="matrix(0.928387,0,0,0.928387,-371.43496,188.49411)">
          <g
             id="g4105"
             transform="matrix(0.97890135,0,0,0.97890135,423.56036,-66.658768)">
            <path
               id="path4099"
               style="fill:#f9f9f9;fill-opacity:1;stroke:none;stroke-width:0.221806"
               d="m 2282.2536,773.94744 -332.9505,15.26734 306.8303,82.21493 z" />
            <path
               id="path4101"
               style="fill:#ffffff;fill-opacity:1;stroke:none;stroke-width:0.341846"
               d="m 2214.434,750.56136 -87.6526,-506.14653 -66.447,485.03578 z" />
          </g>
          <path
             style="fill:#f9f9f9;stroke-width:0.264583px"
             d="m 2632.0923,801.26775 c 0,2.75566 -40.5957,4.99214 -90.6154,4.99214 -50.0196,0 -90.6153,-2.23648 -90.6153,-4.99214 0,-2.75566 40.5957,-4.99214 90.6153,-4.99214 50.0197,0 90.6154,2.23648 90.6154,4.99214 z"
             id="path4150" />
          <path
             style="fill:#f9f9f9;stroke-width:0.17694px"
             d="m 2632.2551,822.35174 c 0,1.84285 -27.1484,3.33849 -60.5991,3.33849 -33.4506,0 -60.599,-1.49564 -60.599,-3.33849 0,-1.84285 27.1484,-3.33849 60.599,-3.33849 33.4507,0 60.5991,1.49564 60.5991,3.33849 z"
             id="path4256" />
          <path
             style="fill:#f9f9f9;stroke-width:0.111208px"
             d="m 2631.8604,841.36866 c 0,1.15824 -17.0629,2.09826 -38.0868,2.09826 -21.0238,0 -38.0867,-0.94002 -38.0867,-2.09826 0,-1.15824 17.0629,-2.09826 38.0867,-2.09826 21.0239,0 38.0868,0.94002 38.0868,2.09826 z"
             id="path4258" />
          <path
             style="fill:#f9f9f9;stroke-width:0.0684953px"
             d="m 2631.7037,856.6855 c 0,0.94141 -7.9638,1.70546 -17.7764,1.70546 -9.8124,0 -17.7763,-0.76405 -17.7763,-1.70546 0,-0.94141 7.9639,-1.70546 17.7763,-1.70546 9.8126,0 17.7764,0.76405 17.7764,1.70546 z"
             id="path4260" />
          <path
             style="fill:#f9f9f9;stroke-width:0.0351048px"
             d="m 2629.9227,868.20936 c 0,0.62762 -3.1376,1.13702 -7.0037,1.13702 -3.8659,0 -7.0036,-0.5094 -7.0036,-1.13702 0,-0.62763 3.1377,-1.13702 7.0036,-1.13702 3.8661,0 7.0037,0.50939 7.0037,1.13702 z"
             id="path4262" />
        </g>
        <g
           id="g4468"
           transform="matrix(0.47433245,0,0,0.47433245,991.21753,399.13658)">
          <g
             id="g4456"
             transform="matrix(0.97890135,0,0,0.97890135,423.56036,-66.658768)">
            <path
               id="path4452"
               style="fill:#f9f9f9;fill-opacity:1;stroke:none;stroke-width:0.221806"
               d="m 2282.2536,773.94744 -332.9505,15.26734 306.8303,82.21493 z" />
            <path
               id="path4454"
               style="fill:#ffffff;fill-opacity:1;stroke:none;stroke-width:0.341846"
               d="m 2214.434,750.56136 -87.6526,-506.14653 -66.447,485.03578 z" />
          </g>
          <path
             style="fill:#f9f9f9;stroke-width:0.264583px"
             d="m 2632.0923,801.26775 c 0,2.75566 -40.5957,4.99214 -90.6154,4.99214 -50.0196,0 -90.6153,-2.23648 -90.6153,-4.99214 0,-2.75566 40.5957,-4.99214 90.6153,-4.99214 50.0197,0 90.6154,2.23648 90.6154,4.99214 z"
             id="path4458" />
          <path
             style="fill:#f9f9f9;stroke-width:0.17694px"
             d="m 2632.2551,822.35174 c 0,1.84285 -27.1484,3.33849 -60.5991,3.33849 -33.4506,0 -60.599,-1.49564 -60.599,-3.33849 0,-1.84285 27.1484,-3.33849 60.599,-3.33849 33.4507,0 60.5991,1.49564 60.5991,3.33849 z"
             id="path4460" />
          <path
             style="fill:#f9f9f9;stroke-width:0.111208px"
             d="m 2631.8604,841.36866 c 0,1.15824 -17.0629,2.09826 -38.0868,2.09826 -21.0238,0 -38.0867,-0.94002 -38.0867,-2.09826 0,-1.15824 17.0629,-2.09826 38.0867,-2.09826 21.0239,0 38.0868,0.94002 38.0868,2.09826 z"
             id="path4462" />
          <path
             style="fill:#f9f9f9;stroke-width:0.0684953px"
             d="m 2631.7037,856.6855 c 0,0.94141 -7.9638,1.70546 -17.7764,1.70546 -9.8124,0 -17.7763,-0.76405 -17.7763,-1.70546 0,-0.94141 7.9639,-1.70546 17.7763,-1.70546 9.8126,0 17.7764,0.76405 17.7764,1.70546 z"
             id="path4464" />
          <path
             style="fill:#f9f9f9;stroke-width:0.0351048px"
             d="m 2629.9227,868.20936 c 0,0.62762 -3.1376,1.13702 -7.0037,1.13702 -3.8659,0 -7.0036,-0.5094 -7.0036,-1.13702 0,-0.62763 3.1377,-1.13702 7.0036,-1.13702 3.8661,0 7.0037,0.50939 7.0037,1.13702 z"
             id="path4466" />
        </g>
        <g
           id="g4486"
           transform="matrix(0.26150349,0,0,0.26150349,1091.506,541.87178)">
          <g
             id="g4474"
             transform="matrix(0.97890135,0,0,0.97890135,423.56036,-66.658768)">
            <path
               id="path4470"
               style="fill:#f9f9f9;fill-opacity:1;stroke:none;stroke-width:0.221806"
               d="m 2282.2536,773.94744 -332.9505,15.26734 306.8303,82.21493 z" />
            <path
               id="path4472"
               style="fill:#ffffff;fill-opacity:1;stroke:none;stroke-width:0.341846"
               d="m 2214.434,750.56136 -87.6526,-506.14653 -66.447,485.03578 z" />
          </g>
          <path
             style="fill:#f9f9f9;stroke-width:0.264583px"
             d="m 2632.0923,801.26775 c 0,2.75566 -40.5957,4.99214 -90.6154,4.99214 -50.0196,0 -90.6153,-2.23648 -90.6153,-4.99214 0,-2.75566 40.5957,-4.99214 90.6153,-4.99214 50.0197,0 90.6154,2.23648 90.6154,4.99214 z"
             id="path4476" />
          <path
             style="fill:#f9f9f9;stroke-width:0.17694px"
             d="m 2632.2551,822.35174 c 0,1.84285 -27.1484,3.33849 -60.5991,3.33849 -33.4506,0 -60.599,-1.49564 -60.599,-3.33849 0,-1.84285 27.1484,-3.33849 60.599,-3.33849 33.4507,0 60.5991,1.49564 60.5991,3.33849 z"
             id="path4478" />
          <path
             style="fill:#f9f9f9;stroke-width:0.111208px"
             d="m 2631.8604,841.36866 c 0,1.15824 -17.0629,2.09826 -38.0868,2.09826 -21.0238,0 -38.0867,-0.94002 -38.0867,-2.09826 0,-1.15824 17.0629,-2.09826 38.0867,-2.09826 21.0239,0 38.0868,0.94002 38.0868,2.09826 z"
             id="path4480" />
          <path
             style="fill:#f9f9f9;stroke-width:0.0684953px"
             d="m 2631.7037,856.6855 c 0,0.94141 -7.9638,1.70546 -17.7764,1.70546 -9.8124,0 -17.7763,-0.76405 -17.7763,-1.70546 0,-0.94141 7.9639,-1.70546 17.7763,-1.70546 9.8126,0 17.7764,0.76405 17.7764,1.70546 z"
             id="path4482" />
          <path
             style="fill:#f9f9f9;stroke-width:0.0351048px"
             d="m 2629.9227,868.20936 c 0,0.62762 -3.1376,1.13702 -7.0037,1.13702 -3.8659,0 -7.0036,-0.5094 -7.0036,-1.13702 0,-0.62763 3.1377,-1.13702 7.0036,-1.13702 3.8661,0 7.0037,0.50939 7.0037,1.13702 z"
             id="path4484" />
        </g>
      </g>
    </g>
  </g>
</svg>
