<svg xmlns="http://www.w3.org/2000/svg" viewBox="0 0 512 512"><path fill="#4097ff" d="M459.63,209.76h-.37c-10.3,0-19.41-6.59-22.75-16.33-2.47-7.18-5.35-14.17-8.62-20.94-4.47-9.25-2.69-20.3,4.57-27.57l.22-.21c14.38-14.38,14.38-37.69,0-52.07l-13.32-13.32c-14.38-14.38-37.69-14.38-52.07,0l-.02.02c-7.29,7.29-18.39,9.05-27.65,4.53-6.82-3.33-13.88-6.26-21.13-8.77-9.7-3.36-16.25-12.45-16.25-22.73s-4.12-19.37-10.79-26.03c-6.66-6.66-15.87-10.78-26.03-10.78h-18.84c-20.33,0-36.82,16.48-36.82,36.81,0,5.14-1.64,9.98-4.49,13.96-2.85,3.98-6.91,7.09-11.76,8.77-7.25,2.51-14.31,5.44-21.13,8.77-9.26,4.52-20.36,2.76-27.65-4.53l-.02-.02c-14.38-14.38-37.69-14.38-52.07,0l-13.32,13.32c-14.38,14.38-14.38,37.69,0,52.07l.22.21c7.26,7.27,9.04,18.32,4.57,27.57-3.27,6.77-6.15,13.76-8.62,20.94-3.34,9.74-12.45,16.33-22.75,16.33h-.37c-20.33,0-36.81,16.49-36.81,36.82v18.84c0,20.33,16.48,36.81,36.81,36.81h.75c10.26,0,19.33,6.53,22.71,16.21,2.47,7.07,5.34,13.94,8.59,20.6,4.53,9.27,2.77,20.38-4.52,27.67l-.58.58c-14.38,14.38-14.38,37.69,0,52.06l13.32,13.33c14.38,14.37,37.69,14.37,52.07,0l.77-.78c7.27-7.27,18.33-9.04,27.59-4.56,6.6,3.19,13.41,6.01,20.41,8.43,9.72,3.37,16.28,12.45,16.28,22.74v1.12c0,20.33,16.49,36.81,36.82,36.81h18.84c20.33,0,36.82-16.48,36.82-36.81v-1.12c0-10.29,6.56-19.37,16.28-22.74,7-2.42,13.81-5.24,20.41-8.43,9.26-4.48,20.32-2.71,27.59,4.56l.77.78c14.38,14.37,37.69,14.37,52.07,0l13.32-13.33c14.38-14.37,14.38-37.68,0-52.06l-.58-.58c-7.29-7.29-9.05-18.4-4.52-27.67,3.25-6.66,6.12-13.53,8.59-20.6,3.38-9.68,12.45-16.21,22.71-16.21h.75c20.33,0,36.81-16.48,36.81-36.81v-18.84c0-20.33-16.48-36.82-36.81-36.82ZM256,368.03c-62.18,0-112.59-50.41-112.59-112.59s50.41-112.59,112.59-112.59,112.59,50.41,112.59,112.59-50.41,112.59-112.59,112.59Z"/><path fill="navy" d="M256,127.85c-70.35,0-127.59,57.24-127.59,127.59s57.24,127.59,127.59,127.59,127.59-57.24,127.59-127.59-57.24-127.59-127.59-127.59ZM256,353.03c-53.81,0-97.59-43.78-97.59-97.59s43.78-97.59,97.59-97.59,97.59,43.78,97.59,97.59-43.78,97.59-97.59,97.59ZM256,127.85c-70.35,0-127.59,57.24-127.59,127.59s57.24,127.59,127.59,127.59,127.59-57.24,127.59-127.59-57.24-127.59-127.59-127.59ZM256,353.03c-53.81,0-97.59-43.78-97.59-97.59s43.78-97.59,97.59-97.59,97.59,43.78,97.59,97.59-43.78,97.59-97.59,97.59ZM459.62,194.76h-.36c-3.85,0-7.29-2.49-8.57-6.21-2.64-7.69-5.77-15.29-9.29-22.59-1.69-3.49-1.05-7.63,1.58-10.34l.31-.3c9.78-9.79,15.17-22.8,15.17-36.65s-5.39-26.85-15.17-36.64l-13.32-13.32c-9.79-9.78-22.8-15.18-36.64-15.18s-26.8,5.37-36.58,15.12l-.09.08c-2.72,2.72-6.92,3.39-10.46,1.66-7.34-3.58-15.01-6.77-22.8-9.46-3.68-1.28-6.16-4.72-6.16-8.56,0-13.85-5.4-26.86-15.18-36.64-9.79-9.78-22.8-15.17-36.64-15.17h-18.84c-28.57,0-51.82,23.24-51.82,51.81,0,1.88-.58,3.69-1.69,5.23-1.11,1.55-2.65,2.7-4.47,3.33-7.79,2.69-15.46,5.88-22.8,9.46-3.54,1.73-7.74,1.06-10.46-1.66l-.09-.08c-9.78-9.75-22.76-15.12-36.58-15.12-6.49,0-12.81,1.19-18.69,3.46-10.08,3.89-12.73,16.94-5.09,24.58h0c4.19,4.19,10.44,5.52,15.97,3.4,2.46-.94,5.1-1.44,7.81-1.44,5.83,0,11.31,2.27,15.43,6.4l.1.09c11.77,11.71,29.75,14.66,44.76,7.33,6.26-3.06,12.8-5.77,19.46-8.08,7.72-2.67,14.3-7.58,19.04-14.21,4.82-6.71,7.34-14.63,7.3-22.88-.06-11.99,9.97-21.62,21.96-21.62h18.13c5.94,0,11.77,2.17,15.98,6.37,4.13,4.12,6.41,9.6,6.41,15.44,0,16.62,10.59,31.45,26.34,36.9,6.66,2.31,13.2,5.02,19.46,8.08,15.01,7.33,32.99,4.38,44.76-7.33l.1-.09c4.12-4.13,9.6-6.4,15.43-6.4s11.3,2.27,15.42,6.4l13.32,13.32c4.13,4.12,6.39,9.6,6.39,15.42s-2.23,11.22-6.28,15.33l-.33.32c-11.72,11.73-14.72,29.69-7.47,44.69,3.01,6.23,5.68,12.73,7.94,19.29,5.43,15.83,20.27,26.46,36.94,26.46h.37c12.05,0,21.81,9.76,21.81,21.81v18.85c0,12.05-9.76,21.81-21.81,21.81h-.75c-16.57,0-31.39,10.56-36.87,26.26-2.25,6.45-4.91,12.83-7.91,18.96-7.35,15.06-4.38,33.09,7.39,44.87l.58.58c4.13,4.12,6.39,9.6,6.39,15.42s-2.26,11.3-6.39,15.43l-13.31,13.32c-8.51,8.5-22.36,8.5-30.8.07l-.83-.85c-11.73-11.73-29.71-14.72-44.73-7.46-6.1,2.95-12.42,5.56-18.79,7.77-15.77,5.47-26.37,20.3-26.37,36.91v1.12c0,12.05-9.76,21.81-21.81,21.81h-18.85c-12.05,0-21.82-9.77-21.82-21.82v-1.11c0-16.61-10.6-31.44-26.38-36.92-6.36-2.2-12.68-4.81-18.78-7.75-5.46-2.65-11.31-3.93-17.11-3.93-10.16,0-20.18,3.94-27.68,11.45l-.7.71c-8.51,8.5-22.36,8.5-30.86.01l-13.33-13.34c-4.12-4.12-6.38-9.59-6.38-15.42s2.26-11.3,6.39-15.42l.58-.58c11.77-11.78,14.74-29.81,7.39-44.86-3-6.14-5.66-12.52-7.91-18.96-5.48-15.71-20.3-26.27-36.87-26.27h-.75c-12.05,0-21.81-9.76-21.81-21.81v-18.84c0-12.05,9.77-21.82,21.82-21.82h.36c16.67,0,31.51-10.63,36.93-26.45,2.27-6.57,4.94-13.07,7.94-19.29,7.26-15.01,4.26-32.97-7.46-44.7l-.33-.32c-4.05-4.11-6.28-9.55-6.28-15.33,0-2.72.49-5.36,1.44-7.82,2.12-5.52.78-11.77-3.4-15.96h0c-7.64-7.64-20.69-4.98-24.58,5.1-2.27,5.88-3.45,12.19-3.45,18.68,0,13.85,5.39,26.86,15.17,36.65l.31.3c2.63,2.71,3.27,6.85,1.58,10.35-3.52,7.29-6.65,14.89-9.3,22.59-1.27,3.71-4.71,6.2-8.56,6.2h-.37c-28.61,0-51.81,23.2-51.81,51.81v18.85c0,28.61,23.2,51.81,51.81,51.81h.75c3.83,0,7.26,2.47,8.55,6.16,2.64,7.55,5.76,15.03,9.27,22.24,1.74,3.54,1.07,7.75-1.65,10.47l-.09.09c-8.86,8.86-14.55,20.53-15.5,33.02-1.17,15.37,4.27,30,15.01,40.73l13.33,13.34c20.2,20.19,53.07,20.19,73.34-.07l.71-.71c2.71-2.71,6.91-3.38,10.45-1.66,7.15,3.45,14.57,6.51,22.03,9.09,3.7,1.29,6.19,4.73,6.19,8.57v1.12c0,28.61,23.2,51.81,51.81,51.81h18.85c28.62,0,51.82-23.2,51.82-51.82v-1.11c0-3.84,2.49-7.28,6.18-8.56,7.47-2.59,14.89-5.65,22.04-9.11,3.54-1.71,7.74-1.04,10.39,1.6l.84.85c20.2,20.19,53.07,20.19,73.28-.01l13.31-13.32c10.75-10.74,16.19-25.37,15.02-40.73-.95-12.5-6.64-24.17-15.5-33.03l-.09-.09c-2.72-2.72-3.39-6.93-1.65-10.48,3.51-7.2,6.63-14.68,9.27-22.24,1.29-3.68,4.72-6.15,8.55-6.15h.75c28.61,0,51.81-23.2,51.81-51.81v-18.84c0-28.62-23.2-51.82-51.82-51.82ZM256,383.03c70.35,0,127.59-57.24,127.59-127.59s-57.24-127.59-127.59-127.59-127.59,57.24-127.59,127.59,57.24,127.59,127.59,127.59ZM256,157.85c53.81,0,97.59,43.78,97.59,97.59s-43.78,97.59-97.59,97.59-97.59-43.78-97.59-97.59,43.78-97.59,97.59-97.59Z"/><path fill="#1b6fea" d="M289.92,418.27c-6.84,0-13.01-4.7-14.61-11.65-1.85-8.07,3.19-16.12,11.26-17.98,10.37-2.38,26.08-7.16,42.04-16.38,7.17-4.15,16.35-1.69,20.49,5.48,4.15,7.17,1.69,16.35-5.48,20.49-19.18,11.09-37.96,16.81-50.34,19.65-1.13.26-2.26.38-3.37.38Z"/></svg>